<?xml version="1.0" encoding="UTF-8" standalone="no"?>
<!-- Created with Sodipodi ("http://www.sodipodi.com/") -->
<svg
   xmlns:dc="http://purl.org/dc/elements/1.1/"
   xmlns:cc="http://creativecommons.org/ns#"
   xmlns:rdf="http://www.w3.org/1999/02/22-rdf-syntax-ns#"
   xmlns:svg="http://www.w3.org/2000/svg"
   xmlns="http://www.w3.org/2000/svg"
   xmlns:sodipodi="http://sodipodi.sourceforge.net/DTD/sodipodi-0.dtd"
   xmlns:inkscape="http://www.inkscape.org/namespaces/inkscape"
   version="1.0"
   width="150"
   height="150"
   id="svg2"
   sodipodi:version="0.32"
   inkscape:version="0.46"
   sodipodi:docname="Replace_this_image11.svg"
   sodipodi:docbase="/home/fun/My Downloads"
   inkscape:output_extension="org.inkscape.output.svg.inkscape">
  <metadata
     id="metadata1943">
    <rdf:RDF>
      <cc:Work
         rdf:about="">
        <dc:format>image/svg+xml</dc:format>
        <dc:type
           rdf:resource="http://purl.org/dc/dcmitype/StillImage" />
      </cc:Work>
    </rdf:RDF>
  </metadata>
  <sodipodi:namedview
     inkscape:window-height="741"
     inkscape:window-width="1016"
     inkscape:pageshadow="2"
     inkscape:pageopacity="0.0"
     guidetolerance="10.0"
     gridtolerance="10.0"
     objecttolerance="10.0"
     borderopacity="1.0"
     bordercolor="#666666"
     pagecolor="#ffffff"
     id="base"
     width="150px"
     height="150px"
     inkscape:zoom="1"
     inkscape:cx="-80.737806"
     inkscape:cy="70.189244"
     inkscape:window-x="110"
     inkscape:window-y="32"
     inkscape:current-layer="svg2"
     showgrid="false" />
  <defs
     id="defs5">
    <inkscape:perspective
       sodipodi:type="inkscape:persp3d"
       inkscape:vp_x="0 : 75 : 1"
       inkscape:vp_y="0 : 1000 : 0"
       inkscape:vp_z="150 : 75 : 1"
       inkscape:persp3d-origin="75 : 50 : 1"
       id="perspective7241" />
  </defs>
  <path
     style="fill:#eaeafc;fill-opacity:1"
     d="M 0,-0.094182983 L 150.09418,-0.094182983 L 150.09418,149.99999 L 0,149.99999 L 0,-0.094182983 z "
     id="rect2182" />
  <path
     transform="matrix(0.927682, 0, 0, 0.899448, 7.88379, 9.99947)"
     style="font-size:12px;fill:#dcdcdc;fill-rule:evenodd;stroke-width:2.50000000000000000;stroke-opacity:0.25100000000000000;fill-opacity:1"
     d="M 104.3499,51.90949 C 101.6626,78.5382 91.86466,97.02538 71.67155,97.02538 C 51.47843,97.02538 42.15349,80.39216 38.99312,52.57722 C 36.36971,27.72742 51.47843,6.449162 71.67155,6.449162 C 91.86466,6.449162 106.6533,27.01063 104.3499,51.90949 z "
     id="path622" />
  <path
     style="fill:#dcdcdc;fill-rule:evenodd;stroke:none;stroke-width:1px;stroke-linecap:butt;stroke-linejoin:miter;stroke-opacity:1;fill-opacity:1"
     d="M 92.5675,89.6048 C 90.79484,93.47893 89.39893,102.4504 94.86478,106.9039 C 103.9375,114.2963 106.7064,116.4723 118.3117,118.9462 C 144.0432,124.4314 141.6492,138.1543 146.5244,149.2206 L 4.268444,149.1023 C 8.472223,138.6518 6.505799,124.7812 32.40051,118.387 C 41.80992,116.0635 45.66513,113.8823 53.58659,107.0158 C 58.52744,102.7329 57.52583,93.99267 56.43084,89.26926 C 52.49275,88.83011 94.1739,88.14054 92.5675,89.6048 z "
     id="path1873" />
  <path
     style="font-size:16px;font-style:normal;font-variant:normal;font-weight:bold;font-stretch:normal;text-align:center;line-height:125%;text-anchor:middle;fill:#606060;fill-opacity:1;stroke:none;stroke-width:1px;stroke-linecap:butt;stroke-linejoin:miter;stroke-opacity:1;font-family:Arial"
     d="M 21.55735,17.328281 L 21.55735,5.8751564 L 23.80735,5.8751564 L 28.49485,13.523594 L 28.49485,5.8751564 L 30.643288,5.8751564 L 30.643288,17.328281 L 28.322975,17.328281 L 23.705788,9.8595314 L 23.705788,17.328281 L 21.55735,17.328281 M 32.572975,13.062656 C 32.572975,12.333495 32.752662,11.627766 33.112038,10.945469 C 33.471411,10.263184 33.979223,9.7423515 34.635475,9.3829689 C 35.29693,9.0236022 36.033909,8.8439149 36.846413,8.8439064 C 38.101615,8.8439149 39.13026,9.2527686 39.93235,10.070469 C 40.734425,10.882975 41.135466,11.91162 41.135475,13.156406 C 41.135466,14.411618 40.729216,15.453283 39.916725,16.281406 C 39.109426,17.104323 38.091198,17.515781 36.862038,17.515781 C 36.101617,17.515781 35.375055,17.343906 34.68235,17.000156 C 33.994848,16.656407 33.471411,16.153803 33.112038,15.492344 C 32.752662,14.82568 32.572975,14.015785 32.572975,13.062656 M 34.822975,13.179844 C 34.822972,14.002764 35.018285,14.632972 35.408913,15.070469 C 35.799534,15.507971 36.281304,15.726721 36.854225,15.726719 C 37.427136,15.726721 37.906303,15.507971 38.291725,15.070469 C 38.682343,14.632972 38.877656,13.997556 38.877663,13.164219 C 38.877656,12.351724 38.682343,11.726725 38.291725,11.289219 C 37.906303,10.851725 37.427136,10.632976 36.854225,10.632969 C 36.281304,10.632976 35.799534,10.851725 35.408913,11.289219 C 35.018285,11.726725 34.822972,12.356932 34.822975,13.179844 M 46.3386,9.0314064 L 47.55735,9.0314064 L 47.55735,8.4064064 C 47.557349,7.7084994 47.630265,7.1876665 47.7761,6.8439064 C 47.92714,6.5001672 48.200577,6.2215217 48.596413,6.0079689 C 48.997451,5.7892304 49.502659,5.6798556 50.112038,5.6798439 C 50.737033,5.6798556 51.349012,5.7736055 51.947975,5.9610939 L 51.6511,7.4923439 C 51.302137,7.4090205 50.9662,7.3673539 50.643288,7.3673439 C 50.325575,7.3673539 50.096409,7.4428746 49.955788,7.5939064 C 49.820367,7.7397493 49.752659,8.0236032 49.752663,8.4454689 L 49.752663,9.0314064 L 51.393288,9.0314064 L 51.393288,10.757969 L 49.752663,10.757969 L 49.752663,17.328281 L 47.55735,17.328281 L 47.55735,10.757969 L 46.3386,10.757969 L 46.3386,9.0314064 M 54.74485,17.328281 L 52.549538,17.328281 L 52.549538,9.0314064 L 54.5886,9.0314064 L 54.5886,10.211094 C 54.937555,9.6538099 55.250055,9.2866228 55.5261,9.1095314 C 55.807346,8.9324565 56.125054,8.8439149 56.479225,8.8439064 C 56.97922,8.8439149 57.46099,8.9819356 57.924538,9.2579689 L 57.24485,11.172031 C 56.875053,10.932454 56.531303,10.812663 56.2136,10.812656 C 55.906304,10.812663 55.645888,10.8986 55.43235,11.070469 C 55.218805,11.237142 55.049534,11.541829 54.924538,11.984531 C 54.804743,12.427245 54.744847,13.354327 54.74485,14.765781 L 54.74485,17.328281 M 63.666725,14.687656 L 65.854225,15.054844 C 65.572967,15.856929 65.127655,16.468907 64.518288,16.890781 C 63.914115,17.307448 63.156303,17.515781 62.24485,17.515781 C 60.802139,17.515781 59.734431,17.044428 59.041725,16.101719 C 58.494849,15.346513 58.221412,14.393389 58.221413,13.242344 C 58.221412,11.867349 58.580787,10.79183 59.299538,10.015781 C 60.018285,9.2345395 60.927139,8.8439149 62.0261,8.8439064 C 63.26047,8.8439149 64.234427,9.2527686 64.947975,10.070469 C 65.661509,10.882975 66.002654,12.13037 65.971413,13.812656 L 60.471413,13.812656 C 60.487035,14.463701 60.664118,14.971513 61.002663,15.336094 C 61.341201,15.695471 61.763075,15.875158 62.268288,15.875156 C 62.612033,15.875158 62.901095,15.781408 63.135475,15.593906 C 63.369845,15.406408 63.546928,15.104325 63.666725,14.687656 M 63.791725,12.468906 C 63.776094,11.833495 63.612032,11.351725 63.299538,11.023594 C 62.987032,10.690267 62.606824,10.523601 62.158913,10.523594 C 61.679742,10.523601 61.283909,10.69808 60.971413,11.047031 C 60.65891,11.395996 60.505264,11.869954 60.510475,12.468906 L 63.791725,12.468906 M 72.572975,14.687656 L 74.760475,15.054844 C 74.479217,15.856929 74.033905,16.468907 73.424538,16.890781 C 72.820365,17.307448 72.062553,17.515781 71.1511,17.515781 C 69.708389,17.515781 68.640681,17.044428 67.947975,16.101719 C 67.401099,15.346513 67.127662,14.393389 67.127663,13.242344 C 67.127662,11.867349 67.487037,10.79183 68.205788,10.015781 C 68.924535,9.2345395 69.833389,8.8439149 70.93235,8.8439064 C 72.16672,8.8439149 73.140677,9.2527686 73.854225,10.070469 C 74.567759,10.882975 74.908904,12.13037 74.877663,13.812656 L 69.377663,13.812656 C 69.393285,14.463701 69.570368,14.971513 69.908913,15.336094 C 70.247451,15.695471 70.669325,15.875158 71.174538,15.875156 C 71.518283,15.875158 71.807345,15.781408 72.041725,15.593906 C 72.276095,15.406408 72.453178,15.104325 72.572975,14.687656 M 72.697975,12.468906 C 72.682344,11.833495 72.518282,11.351725 72.205788,11.023594 C 71.893282,10.690267 71.513074,10.523601 71.065163,10.523594 C 70.585992,10.523601 70.190159,10.69808 69.877663,11.047031 C 69.56516,11.395996 69.411514,11.869954 69.416725,12.468906 L 72.697975,12.468906 M 81.112038,7.9064064 L 81.112038,5.8751564 L 83.30735,5.8751564 L 83.30735,7.9064064 L 81.112038,7.9064064 M 81.112038,17.328281 L 81.112038,9.0314064 L 83.30735,9.0314064 L 83.30735,17.328281 L 81.112038,17.328281 M 85.385475,9.0314064 L 87.408913,9.0314064 L 87.408913,10.164219 C 88.132867,9.2840186 88.994846,8.8439149 89.99485,8.8439064 C 90.526094,8.8439149 90.987031,8.9532898 91.377663,9.1720314 C 91.76828,9.3907893 92.088592,9.7215182 92.3386,10.164219 C 92.703175,9.7215182 93.096404,9.3907893 93.518288,9.1720314 C 93.940153,8.9532898 94.390674,8.8439149 94.86985,8.8439064 C 95.479214,8.8439149 95.994839,8.9689148 96.416725,9.2189064 C 96.838588,9.4637059 97.153692,9.8256847 97.362038,10.304844 C 97.513066,10.659017 97.588587,11.231933 97.5886,12.023594 L 97.5886,17.328281 L 95.393288,17.328281 L 95.393288,12.586094 C 95.393277,11.763183 95.317756,11.231933 95.166725,10.992344 C 94.96359,10.679851 94.65109,10.523601 94.229225,10.523594 C 93.921924,10.523601 93.632862,10.617351 93.362038,10.804844 C 93.091196,10.99235 92.895883,11.268392 92.7761,11.632969 C 92.6563,11.992349 92.596404,12.562661 92.596413,13.343906 L 92.596413,17.328281 L 90.4011,17.328281 L 90.4011,12.781406 C 90.401094,11.97412 90.362032,11.453287 90.283913,11.218906 C 90.205782,10.984538 90.083386,10.810059 89.916725,10.695469 C 89.755261,10.580892 89.533908,10.523601 89.252663,10.523594 C 88.914116,10.523601 88.609429,10.614746 88.3386,10.797031 C 88.067763,10.979329 87.872451,11.24235 87.752663,11.586094 C 87.638076,11.929849 87.580784,12.500161 87.580788,13.297031 L 87.580788,17.328281 L 85.385475,17.328281 L 85.385475,9.0314064 M 101.40891,11.562656 L 99.416725,11.203281 C 99.640682,10.401205 100.0261,9.8074556 100.57298,9.4220314 C 101.11985,9.036623 101.93235,8.8439149 103.01048,8.8439064 C 103.98964,8.8439149 104.7188,8.9611023 105.19798,9.1954689 C 105.67713,9.4246435 106.01307,9.718914 106.20579,10.078281 C 106.4037,10.432455 106.50265,11.0861 106.50266,12.039219 L 106.47923,14.601719 C 106.47922,15.330888 106.51307,15.86995 106.58079,16.218906 C 106.6537,16.562657 106.78651,16.932448 106.97923,17.328281 L 104.80735,17.328281 C 104.75005,17.182448 104.67974,16.966303 104.59641,16.679844 C 104.55995,16.549636 104.53391,16.463699 104.51829,16.422031 C 104.14328,16.786615 103.74224,17.060053 103.31516,17.242344 C 102.88808,17.424635 102.43235,17.515781 101.94798,17.515781 C 101.09381,17.515781 100.41933,17.284011 99.924538,16.820469 C 99.434954,16.356928 99.190162,15.770991 99.190163,15.062656 C 99.190162,14.593909 99.302141,14.177243 99.5261,13.812656 C 99.750057,13.442869 100.06256,13.161619 100.4636,12.968906 C 100.86985,12.770994 101.45318,12.599119 102.2136,12.453281 C 103.23964,12.260578 103.95057,12.080891 104.34641,11.914219 L 104.34641,11.695469 C 104.34641,11.2736 104.24224,10.974121 104.03391,10.797031 C 103.82557,10.614746 103.43235,10.523601 102.85423,10.523594 C 102.4636,10.523601 102.15891,10.601726 101.94016,10.757969 C 101.72141,10.909017 101.54433,11.177246 101.40891,11.562656 M 104.34641,13.343906 C 104.06516,13.43766 103.61985,13.549639 103.01048,13.679844 C 102.4011,13.810056 102.00266,13.93766 101.81516,14.062656 C 101.5287,14.265784 101.38547,14.523597 101.38548,14.836094 C 101.38547,15.143388 101.50006,15.409012 101.72923,15.632969 C 101.95839,15.856929 102.25005,15.968908 102.60423,15.968906 C 103.00005,15.968908 103.37766,15.8387 103.73704,15.578281 C 104.00266,15.380367 104.17714,15.138179 104.26048,14.851719 C 104.31776,14.664222 104.34641,14.307451 104.34641,13.781406 L 104.34641,13.343906 M 108.47141,17.875156 L 110.97923,18.179844 C 111.02089,18.471509 111.11724,18.67203 111.26829,18.781406 C 111.47662,18.937655 111.80474,19.01578 112.25266,19.015781 C 112.82557,19.01578 113.25526,18.929842 113.54173,18.757969 C 113.73443,18.643384 113.88026,18.458489 113.97923,18.203281 C 114.04693,18.020989 114.08078,17.685052 114.08079,17.195469 L 114.08079,15.984531 C 113.42453,16.880365 112.59641,17.328281 111.59641,17.328281 C 110.48183,17.328281 109.59901,16.856928 108.94798,15.914219 C 108.43756,15.169429 108.18235,14.242347 108.18235,13.132969 C 108.18235,11.742349 108.51568,10.679851 109.18235,9.9454689 C 109.85422,9.211102 110.68756,8.8439149 111.68235,8.8439064 C 112.70839,8.8439149 113.55474,9.2944353 114.22141,10.195469 L 114.22141,9.0314064 L 116.2761,9.0314064 L 116.2761,16.476719 C 116.27609,17.455885 116.19536,18.187656 116.03391,18.672031 C 115.87245,19.156405 115.64588,19.536613 115.35423,19.812656 C 115.06255,20.088695 114.67193,20.304841 114.18235,20.461094 C 113.69797,20.617341 113.08339,20.695466 112.3386,20.695469 C 110.93235,20.695466 109.93495,20.453278 109.34641,19.968906 C 108.75787,19.489738 108.4636,18.880363 108.4636,18.140781 C 108.4636,18.067864 108.4662,17.979322 108.47141,17.875156 M 110.43235,13.007969 C 110.43235,13.888181 110.60162,14.534013 110.94016,14.945469 C 111.28391,15.351721 111.70578,15.554846 112.20579,15.554844 C 112.74224,15.554846 113.19537,15.346513 113.56516,14.929844 C 113.93495,14.507972 114.11984,13.885577 114.11985,13.062656 C 114.11984,12.203287 113.94276,11.565266 113.5886,11.148594 C 113.23443,10.731934 112.78651,10.523601 112.24485,10.523594 C 111.7188,10.523601 111.28391,10.72933 110.94016,11.140781 C 110.60162,11.547037 110.43235,12.169432 110.43235,13.007969 M 123.26048,14.687656 L 125.44798,15.054844 C 125.16672,15.856929 124.72141,16.468907 124.11204,16.890781 C 123.50786,17.307448 122.75005,17.515781 121.8386,17.515781 C 120.39589,17.515781 119.32818,17.044428 118.63548,16.101719 C 118.0886,15.346513 117.81516,14.393389 117.81516,13.242344 C 117.81516,11.867349 118.17454,10.79183 118.89329,10.015781 C 119.61204,9.2345395 120.52089,8.8439149 121.61985,8.8439064 C 122.85422,8.8439149 123.82818,9.2527686 124.54173,10.070469 C 125.25526,10.882975 125.5964,12.13037 125.56516,13.812656 L 120.06516,13.812656 C 120.08078,14.463701 120.25787,14.971513 120.59641,15.336094 C 120.93495,15.695471 121.35683,15.875158 121.86204,15.875156 C 122.20578,15.875158 122.49484,15.781408 122.72923,15.593906 C 122.96359,15.406408 123.14068,15.104325 123.26048,14.687656 M 123.38548,12.468906 C 123.36984,11.833495 123.20578,11.351725 122.89329,11.023594 C 122.58078,10.690267 122.20057,10.523601 121.75266,10.523594 C 121.27349,10.523601 120.87766,10.69808 120.56516,11.047031 C 120.25266,11.395996 120.09901,11.869954 120.10423,12.468906 L 123.38548,12.468906"
     id="text2799" />
  <path
     style="font-size:13px;font-style:normal;font-variant:normal;font-weight:normal;font-stretch:normal;text-align:center;line-height:125%;text-anchor:middle;font-family:Bitstream Vera Sans;fill:#606060;fill-opacity:1"
     d="M 21.617416,100.00052 L 21.617416,107.37015 L 23.166245,107.37015 C 24.473856,107.37015 25.430236,107.07393 26.035385,106.48148 C 26.644753,105.88903 26.94944,104.95381 26.949448,103.67581 C 26.94944,102.40629 26.644753,101.47741 26.035385,100.88919 C 25.430236,100.29675 24.473856,100.00053 23.166245,100.00052 L 21.617416,100.00052 M 20.33519,98.946808 L 22.969467,98.946808 C 24.80605,98.946817 26.153868,99.329792 27.012924,100.09573 C 27.871965,100.85746 28.301489,102.05082 28.301498,103.67581 C 28.301489,105.30928 27.869849,106.50898 27.006577,107.27493 C 26.143288,108.04088 24.797586,108.42386 22.969467,108.42386 L 20.33519,108.42386 L 20.33519,98.946808 M 33.043198,102.13333 C 32.416892,102.13334 31.921776,102.37878 31.557846,102.86966 C 31.193912,103.35632 31.011946,104.02494 31.011948,104.87552 C 31.011946,105.72611 31.191796,106.39684 31.551498,106.88773 C 31.915428,107.37438 32.41266,107.61771 33.043198,107.61771 C 33.665263,107.61771 34.158264,107.37226 34.522202,106.88138 C 34.886128,106.39049 35.068094,105.72188 35.0681,104.87552 C 35.068094,104.0334 34.886128,103.3669 34.522202,102.87601 C 34.158264,102.3809 33.665263,102.13334 33.043198,102.13333 M 33.043198,101.1431 C 34.058818,101.1431 34.856506,101.47318 35.436264,102.13333 C 36.01601,102.79349 36.305886,103.70755 36.305893,104.87552 C 36.305886,106.03926 36.01601,106.95332 35.436264,107.61771 C 34.856506,108.27786 34.058818,108.60794 33.043198,108.60794 C 32.023338,108.60794 31.223534,108.27786 30.643784,107.61771 C 30.068262,106.95332 29.780502,106.03926 29.780502,104.87552 C 29.780502,103.70755 30.068262,102.79349 30.643784,102.13333 C 31.223534,101.47318 32.023338,101.1431 33.043198,101.1431 M 45.33226,109.08401 C 45.002178,109.93037 44.680564,110.48261 44.367416,110.74075 C 44.054262,110.99889 43.635318,111.12796 43.11058,111.12796 L 42.177475,111.12796 L 42.177475,110.15042 L 42.863022,110.15042 C 43.184634,110.15042 43.434309,110.07425 43.612045,109.92191 C 43.789777,109.76956 43.986554,109.40986 44.202377,108.8428 L 44.41185,108.3096 L 41.536362,101.31448 L 42.774155,101.31448 L 44.995834,106.87503 L 47.217514,101.31448 L 48.455307,101.31448 L 45.33226,109.08401 M 52.822495,102.13333 C 52.196189,102.13334 51.701072,102.37878 51.337143,102.86966 C 50.973209,103.35632 50.791243,104.02494 50.791245,104.87552 C 50.791243,105.72611 50.971093,106.39684 51.330795,106.88773 C 51.694725,107.37438 52.191957,107.61771 52.822495,107.61771 C 53.44456,107.61771 53.937561,107.37226 54.301498,106.88138 C 54.665425,106.39049 54.847391,105.72188 54.847397,104.87552 C 54.847391,104.0334 54.665425,103.3669 54.301498,102.87601 C 53.937561,102.3809 53.44456,102.13334 52.822495,102.13333 M 52.822495,101.1431 C 53.838115,101.1431 54.635803,101.47318 55.215561,102.13333 C 55.795307,102.79349 56.085183,103.70755 56.08519,104.87552 C 56.085183,106.03926 55.795307,106.95332 55.215561,107.61771 C 54.635803,108.27786 53.838115,108.60794 52.822495,108.60794 C 51.802635,108.60794 51.002831,108.27786 50.42308,107.61771 C 49.847559,106.95332 49.559798,106.03926 49.559799,104.87552 C 49.559798,103.70755 49.847559,102.79349 50.42308,102.13333 C 51.002831,101.47318 51.802635,101.1431 52.822495,101.1431 M 57.894272,105.61819 L 57.894272,101.31448 L 59.062241,101.31448 L 59.062241,105.57376 C 59.062238,106.24661 59.193423,106.75231 59.455795,107.09085 C 59.718162,107.42516 60.111716,107.59232 60.636459,107.59232 C 61.266989,107.59232 61.764221,107.39131 62.128159,106.98929 C 62.496317,106.58727 62.680399,106.03926 62.680405,105.34525 L 62.680405,101.31448 L 63.848373,101.31448 L 63.848373,108.42386 L 62.680405,108.42386 L 62.680405,107.33206 C 62.39687,107.7637 62.066793,108.08532 61.69017,108.29691 C 61.31777,108.50426 60.884014,108.60794 60.388901,108.60794 C 59.572166,108.60794 58.952212,108.35403 58.529037,107.84622 C 58.105859,107.33841 57.894271,106.59574 57.894272,105.61819 M 73.160385,102.13333 C 72.53408,102.13334 72.038963,102.37878 71.675034,102.86966 C 71.311099,103.35632 71.129133,104.02494 71.129135,104.87552 C 71.129133,105.72611 71.308983,106.39684 71.668686,106.88773 C 72.032615,107.37438 72.529848,107.61771 73.160385,107.61771 C 73.782451,107.61771 74.275452,107.37226 74.639389,106.88138 C 75.003316,106.39049 75.185281,105.72188 75.185287,104.87552 C 75.185281,104.0334 75.003316,103.3669 74.639389,102.87601 C 74.275452,102.3809 73.782451,102.13334 73.160385,102.13333 M 73.160385,101.1431 C 74.176005,101.1431 74.973693,101.47318 75.553452,102.13333 C 76.133197,102.79349 76.423073,103.70755 76.42308,104.87552 C 76.423073,106.03926 76.133197,106.95332 75.553452,107.61771 C 74.973693,108.27786 74.176005,108.60794 73.160385,108.60794 C 72.140525,108.60794 71.340722,108.27786 70.760971,107.61771 C 70.185449,106.95332 69.897689,106.03926 69.89769,104.87552 C 69.897689,103.70755 70.185449,102.79349 70.760971,102.13333 C 71.340722,101.47318 72.140525,101.1431 73.160385,101.1431 M 77.673569,101.31448 L 78.841537,101.31448 L 80.301498,106.86234 L 81.755112,101.31448 L 83.132553,101.31448 L 84.592514,106.86234 L 86.046127,101.31448 L 87.214096,101.31448 L 85.354233,108.42386 L 83.976791,108.42386 L 82.447006,102.59671 L 80.910873,108.42386 L 79.533432,108.42386 L 77.673569,101.31448 M 94.901108,104.13284 L 94.901108,108.42386 L 93.733139,108.42386 L 93.733139,104.17093 C 93.733133,103.49808 93.601948,102.9945 93.339584,102.66019 C 93.077209,102.32588 92.683655,102.15873 92.15892,102.15872 C 91.528383,102.15873 91.03115,102.35974 90.667221,102.76175 C 90.303286,103.16377 90.12132,103.71179 90.121323,104.40579 L 90.121323,108.42386 L 88.947006,108.42386 L 88.947006,101.31448 L 90.121323,101.31448 L 90.121323,102.41898 C 90.400617,101.99157 90.728579,101.67208 91.105209,101.46048 C 91.486065,101.2489 91.924053,101.1431 92.419174,101.1431 C 93.2359,101.1431 93.853738,101.39701 94.27269,101.90482 C 94.691628,102.4084 94.901101,103.15108 94.901108,104.13284 M 104.13695,102.13333 C 103.51064,102.13334 103.01553,102.37878 102.6516,102.86966 C 102.28766,103.35632 102.1057,104.02494 102.1057,104.87552 C 102.1057,105.72611 102.28555,106.39684 102.64525,106.88773 C 103.00918,107.37438 103.50641,107.61771 104.13695,107.61771 C 104.75901,107.61771 105.25201,107.37226 105.61595,106.88138 C 105.97988,106.39049 106.16184,105.72188 106.16185,104.87552 C 106.16184,104.0334 105.97988,103.3669 105.61595,102.87601 C 105.25201,102.3809 104.75901,102.13334 104.13695,102.13333 M 104.13695,101.1431 C 105.15257,101.1431 105.95026,101.47318 106.53001,102.13333 C 107.10976,102.79349 107.39964,103.70755 107.39964,104.87552 C 107.39964,106.03926 107.10976,106.95332 106.53001,107.61771 C 105.95026,108.27786 105.15257,108.60794 104.13695,108.60794 C 103.11709,108.60794 102.31728,108.27786 101.73753,107.61771 C 101.16201,106.95332 100.87425,106.03926 100.87425,104.87552 C 100.87425,103.70755 101.16201,102.79349 101.73753,102.13333 C 102.31728,101.47318 103.11709,101.1431 104.13695,101.1431 M 115.239,104.13284 L 115.239,108.42386 L 114.07103,108.42386 L 114.07103,104.17093 C 114.07102,103.49808 113.93984,102.9945 113.67747,102.66019 C 113.4151,102.32588 113.02155,102.15873 112.49681,102.15872 C 111.86627,102.15873 111.36904,102.35974 111.00511,102.76175 C 110.64118,103.16377 110.45921,103.71179 110.45921,104.40579 L 110.45921,108.42386 L 109.2849,108.42386 L 109.2849,101.31448 L 110.45921,101.31448 L 110.45921,102.41898 C 110.73851,101.99157 111.06647,101.67208 111.4431,101.46048 C 111.82396,101.2489 112.26194,101.1431 112.75706,101.1431 C 113.57379,101.1431 114.19163,101.39701 114.61058,101.90482 C 115.02952,102.4084 115.23899,103.15108 115.239,104.13284 M 123.66234,104.57718 L 123.66234,105.14847 L 118.29222,105.14847 C 118.343,105.95251 118.58421,106.56611 119.01585,106.98929 C 119.45172,107.40823 120.05687,107.61771 120.83128,107.61771 C 121.27985,107.61771 121.7136,107.56269 122.13255,107.45267 C 122.55572,107.34264 122.97467,107.1776 123.38939,106.95755 L 123.38939,108.06204 C 122.97044,108.23978 122.54091,108.37519 122.10081,108.46829 C 121.66071,108.56139 121.21425,108.60794 120.76146,108.60794 C 119.62734,108.60794 118.72809,108.27786 118.06371,107.61771 C 117.40355,106.95755 117.07347,106.06465 117.07347,104.939 C 117.07347,103.77526 117.38662,102.85274 118.01292,102.17142 C 118.64346,101.48588 119.49192,101.1431 120.55833,101.1431 C 121.51471,101.1431 122.27008,101.45202 122.82445,102.06985 C 123.38303,102.68347 123.66233,103.51924 123.66234,104.57718 M 122.49437,104.23441 C 122.4859,103.59541 122.30605,103.08549 121.95482,102.70462 C 121.60781,102.32377 121.14655,102.13334 120.57103,102.13333 C 119.91933,102.13334 119.39671,102.31742 119.00316,102.68558 C 118.61383,103.05375 118.38955,103.57214 118.33031,104.24075 L 122.49437,104.23441 M 126.83617,106.81155 L 128.12474,106.81155 L 128.12474,108.42386 L 126.83617,108.42386 L 126.83617,106.81155 M 128.08665,105.87845 L 126.87425,105.87845 L 126.87425,104.90091 C 126.87425,104.4735 126.93349,104.12227 127.05199,103.8472 C 127.17047,103.57214 127.42015,103.25264 127.80101,102.8887 L 128.3723,102.32376 C 128.61351,102.09948 128.78701,101.8879 128.89281,101.689 C 129.00283,101.49011 129.05784,101.28698 129.05785,101.07962 C 129.05784,100.703 128.91819,100.39831 128.6389,100.16556 C 128.36383,99.932819 127.99778,99.816445 127.54076,99.816437 C 127.20644,99.816445 126.84886,99.890501 126.468,100.0386 C 126.09137,100.18672 125.69782,100.40255 125.28734,100.68607 L 125.28734,99.492706 C 125.68512,99.251505 126.08714,99.071654 126.49339,98.953156 C 126.90387,98.834676 127.32705,98.775431 127.76292,98.775421 C 128.54157,98.775431 129.16575,98.980671 129.63548,99.391144 C 130.10944,99.801634 130.34641,100.3433 130.34642,101.01614 C 130.34641,101.33777 130.27024,101.64457 130.1179,101.93655 C 129.96556,102.22432 129.69895,102.55017 129.3181,102.91409 L 128.75951,103.45999 C 128.56061,103.65889 128.41884,103.81546 128.33421,103.92972 C 128.25381,104.03975 128.19668,104.14766 128.16283,104.25345 C 128.13743,104.34232 128.11839,104.45023 128.1057,104.57718 C 128.093,104.70414 128.08665,104.87764 128.08665,105.09769 L 128.08665,105.87845 M 4.0217133,131.44681 L 5.3039398,131.44681 L 5.3039398,140.92386 L 4.0217133,140.92386 L 4.0217133,131.44681 M 11.404037,131.04691 L 11.404037,132.0181 L 10.28685,132.0181 C 9.8679014,132.01811 9.5759095,132.10274 9.4108734,132.272 C 9.2500635,132.44128 9.1696599,132.74597 9.1696625,133.18607 L 9.1696625,133.81448 L 11.093002,133.81448 L 11.093002,134.7222 L 9.1696625,134.7222 L 9.1696625,140.92386 L 7.9953461,140.92386 L 7.9953461,134.7222 L 6.8781586,134.7222 L 6.8781586,133.81448 L 7.9953461,133.81448 L 7.9953461,133.31937 C 7.9953447,132.52803 8.1794265,131.95251 8.5475922,131.5928 C 8.9157539,131.22888 9.4997377,131.04692 10.299545,131.04691 L 11.404037,131.04691 M 21.046127,134.02396 L 21.046127,135.12845 C 20.716044,134.95918 20.373271,134.83223 20.017807,134.74759 C 19.662334,134.66296 19.29417,134.62064 18.913315,134.62064 C 18.333559,134.62064 17.897687,134.70951 17.605698,134.88724 C 17.317935,135.06498 17.174055,135.33158 17.174057,135.68704 C 17.174055,135.95788 17.277733,136.17158 17.485092,136.32816 C 17.692447,136.4805 18.109276,136.6265 18.73558,136.76614 L 19.135483,136.85501 C 19.964905,137.03275 20.553121,137.28454 20.900131,137.61038 C 21.251362,137.932 21.426981,138.38268 21.426987,138.96243 C 21.426981,139.62259 21.164611,140.14521 20.639877,140.5303 C 20.119365,140.9154 19.40208,141.10794 18.488022,141.10794 C 18.10716,141.10794 17.709374,141.06985 17.294662,140.99368 C 16.884179,140.92174 16.450423,140.81172 15.993393,140.6636 L 15.993393,139.45755 C 16.425032,139.68184 16.850325,139.85111 17.269272,139.96536 C 17.688215,140.07539 18.102928,140.1304 18.513412,140.1304 C 19.063539,140.1304 19.486716,140.0373 19.782944,139.8511 C 20.079163,139.66068 20.227275,139.39408 20.22728,139.0513 C 20.227275,138.73392 20.119365,138.49059 19.903549,138.32132 C 19.691956,138.15205 19.224346,137.98913 18.500717,137.83255 L 18.094467,137.73734 C 17.370832,137.58499 16.848209,137.35225 16.526596,137.03909 C 16.204981,136.72171 16.044173,136.28796 16.044174,135.73782 C 16.044173,135.06921 16.281152,134.55293 16.755112,134.189 C 17.229068,133.82507 17.901919,133.6431 18.773666,133.6431 C 19.205303,133.6431 19.611553,133.67484 19.992416,133.73831 C 20.373271,133.8018 20.724507,133.89701 21.046127,134.02396 M 26.04808,134.63333 C 25.421775,134.63334 24.926658,134.87878 24.562729,135.36966 C 24.198794,135.85632 24.016828,136.52494 24.01683,137.37552 C 24.016828,138.22611 24.196679,138.89684 24.556381,139.38773 C 24.920311,139.87438 25.417543,140.11771 26.04808,140.11771 C 26.670146,140.11771 27.163147,139.87226 27.527084,139.38138 C 27.891011,138.89049 28.072977,138.22188 28.072983,137.37552 C 28.072977,136.5334 27.891011,135.8669 27.527084,135.37601 C 27.163147,134.8809 26.670146,134.63334 26.04808,134.63333 M 26.04808,133.6431 C 27.0637,133.6431 27.861388,133.97318 28.441147,134.63333 C 29.020893,135.29349 29.310769,136.20755 29.310776,137.37552 C 29.310769,138.53926 29.020893,139.45332 28.441147,140.11771 C 27.861388,140.77786 27.0637,141.10794 26.04808,141.10794 C 25.028221,141.10794 24.228417,140.77786 23.648666,140.11771 C 23.073145,139.45332 22.785384,138.53926 22.785385,137.37552 C 22.785384,136.20755 23.073145,135.29349 23.648666,134.63333 C 24.228417,133.97318 25.028221,133.6431 26.04808,133.6431 M 31.538803,139.31155 L 32.878159,139.31155 L 32.878159,140.40335 L 31.837143,142.4346 L 31.018295,142.4346 L 31.538803,140.40335 L 31.538803,139.31155 M 40.64769,139.85745 L 40.64769,143.62796 L 39.473373,143.62796 L 39.473373,133.81448 L 40.64769,133.81448 L 40.64769,134.89359 C 40.89313,134.47041 41.202049,134.15726 41.574448,133.95413 C 41.951072,133.74678 42.399639,133.6431 42.920151,133.6431 C 43.783427,133.6431 44.483784,133.98588 45.021225,134.67142 C 45.562884,135.35697 45.833717,136.25834 45.833725,137.37552 C 45.833717,138.49271 45.562884,139.39408 45.021225,140.07962 C 44.483784,140.76517 43.783427,141.10794 42.920151,141.10794 C 42.399639,141.10794 41.951072,141.00638 41.574448,140.80325 C 41.202049,140.5959 40.89313,140.28063 40.64769,139.85745 M 44.621323,137.37552 C 44.621316,136.51647 44.443582,135.84362 44.08812,135.35696 C 43.736877,134.86608 43.25234,134.62064 42.634506,134.62064 C 42.016664,134.62064 41.530011,134.86608 41.174545,135.35696 C 40.823306,135.84362 40.647687,136.51647 40.64769,137.37552 C 40.647687,138.23457 40.823306,138.90954 41.174545,139.40042 C 41.530011,139.88708 42.016664,140.1304 42.634506,140.1304 C 43.25234,140.1304 43.736877,139.88708 44.08812,139.40042 C 44.443582,138.90954 44.621316,138.23457 44.621323,137.37552 M 47.76976,131.04691 L 48.937729,131.04691 L 48.937729,140.92386 L 47.76976,140.92386 L 47.76976,131.04691 M 57.456284,137.07718 L 57.456284,137.64847 L 52.086166,137.64847 C 52.136946,138.45251 52.378156,139.06611 52.809799,139.48929 C 53.245668,139.90823 53.850811,140.11771 54.625229,140.11771 C 55.073792,140.11771 55.507548,140.06269 55.926498,139.95267 C 56.349669,139.84264 56.768614,139.6776 57.183334,139.45755 L 57.183334,140.56204 C 56.764382,140.73978 56.334858,140.87519 55.89476,140.96829 C 55.454651,141.06139 55.008199,141.10794 54.555405,141.10794 C 53.421287,141.10794 52.522036,140.77786 51.857651,140.11771 C 51.197493,139.45755 50.867416,138.56465 50.867416,137.439 C 50.867416,136.27526 51.180566,135.35274 51.80687,134.67142 C 52.437401,133.98588 53.28587,133.6431 54.35228,133.6431 C 55.308655,133.6431 56.064025,133.95202 56.618393,134.56985 C 57.17698,135.18347 57.456276,136.01924 57.456284,137.07718 M 56.288315,136.73441 C 56.279845,136.09541 56.099995,135.58549 55.748764,135.20462 C 55.401754,134.82377 54.940491,134.63334 54.364975,134.63333 C 53.713279,134.63334 53.190656,134.81742 52.797104,135.18558 C 52.407779,135.55375 52.183495,136.07214 52.124252,136.74075 L 56.288315,136.73441 M 62.604233,137.35013 C 61.660544,137.35013 61.006736,137.45804 60.642807,137.67386 C 60.278873,137.88968 60.096907,138.25785 60.096909,138.77835 C 60.096907,139.19307 60.232323,139.52314 60.503159,139.76859 C 60.778221,140.0098 61.150617,140.1304 61.620346,140.1304 C 62.267803,140.1304 62.786194,139.90189 63.175522,139.44485 C 63.569071,138.98359 63.765848,138.3721 63.765854,137.61038 L 63.765854,137.35013 L 62.604233,137.35013 M 64.933823,136.86771 L 64.933823,140.92386 L 63.765854,140.92386 L 63.765854,139.84476 C 63.499247,140.2764 63.167053,140.5959 62.769272,140.80325 C 62.371481,141.00638 61.884828,141.10794 61.309311,141.10794 C 60.581444,141.10794 60.001692,140.90482 59.570053,140.49857 C 59.142643,140.08808 58.928939,139.54007 58.92894,138.85452 C 58.928939,138.05472 59.19554,137.45169 59.728745,137.04544 C 60.266177,136.63919 61.065981,136.43607 62.128159,136.43607 L 63.765854,136.43607 L 63.765854,136.32181 C 63.765848,135.78438 63.588114,135.36966 63.232651,135.07767 C 62.881409,134.78145 62.386292,134.63334 61.747299,134.63333 C 61.341046,134.63334 60.945376,134.682 60.560287,134.77933 C 60.175194,134.87666 59.804915,135.02266 59.449448,135.21732 L 59.449448,134.13821 C 59.876855,133.97318 60.291568,133.85046 60.693588,133.77005 C 61.095604,133.68542 61.487042,133.6431 61.867905,133.6431 C 62.89622,133.6431 63.664286,133.90971 64.172104,134.4429 C 64.67991,134.97611 64.933816,135.78438 64.933823,136.86771 M 71.878159,134.02396 L 71.878159,135.12845 C 71.548075,134.95918 71.205302,134.83223 70.849838,134.74759 C 70.494365,134.66296 70.126201,134.62064 69.745346,134.62064 C 69.16559,134.62064 68.729718,134.70951 68.437729,134.88724 C 68.149966,135.06498 68.006086,135.33158 68.006088,135.68704 C 68.006086,135.95788 68.109765,136.17158 68.317123,136.32816 C 68.524478,136.4805 68.941307,136.6265 69.567612,136.76614 L 69.967514,136.85501 C 70.796936,137.03275 71.385152,137.28454 71.732162,137.61038 C 72.083393,137.932 72.259012,138.38268 72.259018,138.96243 C 72.259012,139.62259 71.996642,140.14521 71.471909,140.5303 C 70.951396,140.9154 70.234111,141.10794 69.320053,141.10794 C 68.939191,141.10794 68.541405,141.06985 68.126694,140.99368 C 67.71621,140.92174 67.282454,140.81172 66.825424,140.6636 L 66.825424,139.45755 C 67.257064,139.68184 67.682356,139.85111 68.101303,139.96536 C 68.520246,140.07539 68.934959,140.1304 69.345444,140.1304 C 69.89557,140.1304 70.318747,140.0373 70.614975,139.8511 C 70.911194,139.66068 71.059306,139.39408 71.059311,139.0513 C 71.059306,138.73392 70.951396,138.49059 70.73558,138.32132 C 70.523987,138.15205 70.056377,137.98913 69.332748,137.83255 L 68.926498,137.73734 C 68.202864,137.58499 67.68024,137.35225 67.358627,137.03909 C 67.037012,136.72171 66.876205,136.28796 66.876205,135.73782 C 66.876205,135.06921 67.113184,134.55293 67.587143,134.189 C 68.061099,133.82507 68.73395,133.6431 69.605698,133.6431 C 70.037334,133.6431 70.443584,133.67484 70.824448,133.73831 C 71.205302,133.8018 71.556539,133.89701 71.878159,134.02396 M 80.206284,137.07718 L 80.206284,137.64847 L 74.836166,137.64847 C 74.886946,138.45251 75.128156,139.06611 75.559799,139.48929 C 75.995668,139.90823 76.600811,140.11771 77.375229,140.11771 C 77.823792,140.11771 78.257548,140.06269 78.676498,139.95267 C 79.099669,139.84264 79.518614,139.6776 79.933334,139.45755 L 79.933334,140.56204 C 79.514382,140.73978 79.084858,140.87519 78.64476,140.96829 C 78.204651,141.06139 77.758199,141.10794 77.305405,141.10794 C 76.171287,141.10794 75.272036,140.77786 74.607651,140.11771 C 73.947493,139.45755 73.617416,138.56465 73.617416,137.439 C 73.617416,136.27526 73.930566,135.35274 74.55687,134.67142 C 75.187401,133.98588 76.03587,133.6431 77.10228,133.6431 C 78.058655,133.6431 78.814025,133.95202 79.368393,134.56985 C 79.92698,135.18347 80.206276,136.01924 80.206284,137.07718 M 79.038315,136.73441 C 79.029845,136.09541 78.849995,135.58549 78.498764,135.20462 C 78.151754,134.82377 77.690491,134.63334 77.114975,134.63333 C 76.463279,134.63334 75.940656,134.81742 75.547104,135.18558 C 75.157779,135.55375 74.933495,136.07214 74.874252,136.74075 L 79.038315,136.73441 M 91.378159,134.08743 L 91.378159,135.17923 C 91.048074,134.99727 90.715881,134.86185 90.381577,134.77298 C 90.051493,134.67989 89.717184,134.63334 89.378647,134.63333 C 88.621156,134.63334 88.032941,134.87455 87.613998,135.35696 C 87.195051,135.83516 86.985578,136.50801 86.98558,137.37552 C 86.985578,138.24303 87.195051,138.918 87.613998,139.40042 C 88.032941,139.87861 88.621156,140.11771 89.378647,140.11771 C 89.717184,140.11771 90.051493,140.07327 90.381577,139.98441 C 90.715881,139.89131 91.048074,139.75378 91.378159,139.57181 L 91.378159,140.65091 C 91.052306,140.80325 90.713765,140.91751 90.362534,140.99368 C 90.015523,141.06985 89.645244,141.10794 89.251694,141.10794 C 88.181053,141.10794 87.330467,140.77152 86.699936,140.09866 C 86.069401,139.42581 85.754134,138.5181 85.754135,137.37552 C 85.754134,136.21602 86.071517,135.30407 86.706284,134.63968 C 87.345279,133.9753 88.219138,133.6431 89.327866,133.6431 C 89.687561,133.6431 90.038798,133.68119 90.381577,133.75735 C 90.724344,133.8293 91.056538,133.93933 91.378159,134.08743 M 93.422104,131.04691 L 94.590073,131.04691 L 94.590073,140.92386 L 93.422104,140.92386 L 93.422104,131.04691 M 97.027573,133.81448 L 98.195541,133.81448 L 98.195541,140.92386 L 97.027573,140.92386 L 97.027573,133.81448 M 97.027573,131.04691 L 98.195541,131.04691 L 98.195541,132.52591 L 97.027573,132.52591 L 97.027573,131.04691 M 105.74925,134.08743 L 105.74925,135.17923 C 105.41917,134.99727 105.08697,134.86185 104.75267,134.77298 C 104.42259,134.67989 104.08828,134.63334 103.74974,134.63333 C 102.99225,134.63334 102.40403,134.87455 101.98509,135.35696 C 101.56614,135.83516 101.35667,136.50801 101.35667,137.37552 C 101.35667,138.24303 101.56614,138.918 101.98509,139.40042 C 102.40403,139.87861 102.99225,140.11771 103.74974,140.11771 C 104.08828,140.11771 104.42259,140.07327 104.75267,139.98441 C 105.08697,139.89131 105.41917,139.75378 105.74925,139.57181 L 105.74925,140.65091 C 105.4234,140.80325 105.08486,140.91751 104.73363,140.99368 C 104.38662,141.06985 104.01634,141.10794 103.62279,141.10794 C 102.55215,141.10794 101.70156,140.77152 101.07103,140.09866 C 100.44049,139.42581 100.12523,138.5181 100.12523,137.37552 C 100.12523,136.21602 100.44261,135.30407 101.07738,134.63968 C 101.71637,133.9753 102.59023,133.6431 103.69896,133.6431 C 104.05866,133.6431 104.40989,133.68119 104.75267,133.75735 C 105.09544,133.8293 105.42763,133.93933 105.74925,134.08743 M 107.74876,131.04691 L 108.92308,131.04691 L 108.92308,136.8804 L 112.40794,133.81448 L 113.89964,133.81448 L 110.12914,137.14066 L 114.05833,140.92386 L 112.5349,140.92386 L 108.92308,137.45169 L 108.92308,140.92386 L 107.74876,140.92386 L 107.74876,131.04691 M 125.38255,136.63284 L 125.38255,140.92386 L 124.21458,140.92386 L 124.21458,136.67093 C 124.21458,135.99808 124.08339,135.4945 123.82103,135.16019 C 123.55865,134.82588 123.1651,134.65873 122.64037,134.65872 C 122.00983,134.65873 121.5126,134.85974 121.14867,135.26175 C 120.78473,135.66377 120.60277,136.21179 120.60277,136.90579 L 120.60277,140.92386 L 119.42845,140.92386 L 119.42845,131.04691 L 120.60277,131.04691 L 120.60277,134.91898 C 120.88206,134.49157 121.21002,134.17208 121.58665,133.96048 C 121.96751,133.7489 122.4055,133.6431 122.90062,133.6431 C 123.71735,133.6431 124.33518,133.89701 124.75414,134.40482 C 125.17307,134.9084 125.38255,135.65108 125.38255,136.63284 M 133.80589,137.07718 L 133.80589,137.64847 L 128.43578,137.64847 C 128.48656,138.45251 128.72777,139.06611 129.15941,139.48929 C 129.59528,139.90823 130.20042,140.11771 130.97484,140.11771 C 131.4234,140.11771 131.85716,140.06269 132.27611,139.95267 C 132.69928,139.84264 133.11822,139.6776 133.53294,139.45755 L 133.53294,140.56204 C 133.11399,140.73978 132.68447,140.87519 132.24437,140.96829 C 131.80426,141.06139 131.35781,141.10794 130.90501,141.10794 C 129.7709,141.10794 128.87165,140.77786 128.20726,140.11771 C 127.5471,139.45755 127.21703,138.56465 127.21703,137.439 C 127.21703,136.27526 127.53018,135.35274 128.15648,134.67142 C 128.78701,133.98588 129.63548,133.6431 130.70189,133.6431 C 131.65826,133.6431 132.41363,133.95202 132.968,134.56985 C 133.52659,135.18347 133.80589,136.01924 133.80589,137.07718 M 132.63792,136.73441 C 132.62945,136.09541 132.4496,135.58549 132.09837,135.20462 C 131.75136,134.82377 131.2901,134.63334 130.71458,134.63333 C 130.06289,134.63334 129.54026,134.81742 129.14671,135.18558 C 128.75739,135.55375 128.5331,136.07214 128.47386,136.74075 L 132.63792,136.73441 M 139.84251,134.90628 C 139.71132,134.83011 139.56744,134.7751 139.41087,134.74124 C 139.25852,134.70316 139.08925,134.68412 138.90306,134.68411 C 138.2429,134.68412 137.73509,134.89994 137.37962,135.33157 C 137.02838,135.75899 136.85277,136.37471 136.85277,137.17874 L 136.85277,140.92386 L 135.67845,140.92386 L 135.67845,133.81448 L 136.85277,133.81448 L 136.85277,134.91898 C 137.09821,134.48734 137.41771,134.16784 137.81126,133.96048 C 138.20482,133.7489 138.683,133.6431 139.24583,133.6431 C 139.32623,133.6431 139.4151,133.64945 139.51244,133.66214 C 139.60976,133.67061 139.71767,133.68542 139.83617,133.70657 L 139.84251,134.90628 M 146.88206,137.07718 L 146.88206,137.64847 L 141.51195,137.64847 C 141.56273,138.45251 141.80394,139.06611 142.23558,139.48929 C 142.67145,139.90823 143.27659,140.11771 144.05101,140.11771 C 144.49957,140.11771 144.93333,140.06269 145.35228,139.95267 C 145.77545,139.84264 146.1944,139.6776 146.60912,139.45755 L 146.60912,140.56204 C 146.19016,140.73978 145.76064,140.87519 145.32054,140.96829 C 144.88043,141.06139 144.43398,141.10794 143.98119,141.10794 C 142.84707,141.10794 141.94782,140.77786 141.28343,140.11771 C 140.62327,139.45755 140.2932,138.56465 140.2932,137.439 C 140.2932,136.27526 140.60635,135.35274 141.23265,134.67142 C 141.86318,133.98588 142.71165,133.6431 143.77806,133.6431 C 144.73444,133.6431 145.48981,133.95202 146.04417,134.56985 C 146.60276,135.18347 146.88206,136.01924 146.88206,137.07718 M 145.7141,136.73441 C 145.70563,136.09541 145.52578,135.58549 145.17455,135.20462 C 144.82753,134.82377 144.36627,134.63334 143.79076,134.63333 C 143.13906,134.63334 142.61644,134.81742 142.22289,135.18558 C 141.83356,135.55375 141.60928,136.07214 141.55003,136.74075 L 145.7141,136.73441"
     id="text1953" />
</svg>
